#!OML:ASF F:\VICON\USERDATA\INSTALL\rory3\rory3.ASF
:FULLY-SPECIFIED
:DEGREES
98
root -0.0410619751056332 17.689845052502886 50.92066400265886 -3.9183539787519077 -0.909985609327955 0.28632625992915495
lfemur -1.5646706579811163 -7.2743831363287175 -20.495759159051822
ltibia 11.850097460889838
lfoot -16.234984151063053 2.774039500504575
ltoes -5.604148076500115
rfemur -30.54568023782933 1.6183561762089789 18.055006398136467
rtibia 50.095704918392634
rfoot -8.63902328227141 -19.313342191100908
rtoes 5.8793183749913425
lowerback nan -1.0294716121616383 -3.307405389626058
upperback 0.9044736874796053 -0.6780248859959777 1.056293440738127
thorax -4.9179277872216955 -0.19696853041658624 3.5673374894473033
lowerneck -15.29286468044766 -2.572427002280921 -2.456348899029181
upperneck 19.76886748827448 -3.2457150374430297 1.3382048252262746
head 8.744465419202015 -1.7066818936970443 0.4094419288656165
lclavicle -3.6142906163790185e-15 5.331347658758455e-15
lhumerus -26.943186709673753 -0.9601743539496921 82.72870377479012
lradius 26.84768216713001
lwrist 5.609230054041687
lhand -28.716953362218746 26.54022627989945
lfingers nan
lthumb -2.372471798390168 56.26728323594241
rclavicle -3.0608829043476736e-15 7.199601411916558e-15
rhumerus -30.09402027585503 -14.24883748475888 -81.40469659628603
rradius 31.574172020446433
rwrist 0.9147295598468244
rhand -16.757109712361782 nan
rfingers nan
rthumb 9.679314691440695 -5.180325759456238
99
root -0.07789388291278648 17.70405644248665 50.37667608734766 -3.2423071112839037 -0.7628537351930833 0.1735835837085098
lfemur -0.07310214382978764 -7.034219298672987 -20.077460170333424
ltibia 9.865966781273244
lfoot -16.5135140251421 2.2550250007178674
ltoes -4.290919394904022
rfemur -31.458546801235954 2.421854288840508 19.24737391810869
rtibia 39.288242533506455
rfoot -7.857466197723331 -21.24549991478741
rtoes 2.680137339389554
lowerback nan -1.313620255953289 -3.622269757751419
upperback 0.8935370297366816 -0.9523852801482233 1.5293330742277913
thorax -4.897277486113441 -0.40389141009857954 4.148624397160169
lowerneck -16.050888046818674 -2.6193504306175845 -2.8613026801894113
upperneck 19.80131005633969 -3.290709011208384 1.7407426203575165
head 8.862584847168451 -1.7066166538829222 0.5792027082374551
lclavicle 1.2387458019575121e-14 4.2116134326456825e-15
lhumerus -24.514912473544623 -2.032779527761404 82.58824318025916
lradius 28.45644592503495
lwrist 6.300201022198532
lhand -27.874669956347688 28.425774957168912
lfingers nan
lthumb -1.4894331109941004 58.243327703737414
rclavicle 1.2560910129865292e-14 5.708683436865007e-15
rhumerus -30.06263311586269 -13.839711631819409 -81.47027548806172
rradius 31.693171369187326
rwrist 1.013053120378868
rhand -17.441238235375806 nan
rfingers nan
rthumb 8.997954205712023 -4.830920102408644
100
root -0.09629131073734726 17.71097207830913 50.91552364240174 -2.5926100183040273 -0.29329483222247354 0.6160801091236383
lfemur 2.511771169270437 -6.674088003483785 -20.296749983829706
ltibia 6.548127288571372
lfoot -16.604606550824176 2.065692538167725
ltoes -8.232002844139254
rfemur -31.21686455110063 3.2536521540144916 18.8057798784596
rtibia 25.66610644228193
rfoot -4.951975587064476 -22.143737019722444
rtoes 4.362259793362277
lowerback nan -1.6756006257773501 -4.052465995626691
upperback 0.7899641581233268 -1.4590190376523426 1.5670572556412825
thorax -4.6437928432032765 -0.6906616938955963 4.479830693250597
lowerneck -16.448962957100008 -2.725808017359874 -2.867317812559396
upperneck 19.96354686124619 -3.4465132311766835 1.6868827141909768
head 8.9866123719866 -1.768851351771469 0.5225871175311401
lclavicle -7.50245414742466e-15 2.9930050105653397e-15
lhumerus -22.59781303690766 -2.3714087597462647 82.22678385530521
lradius 30.078161635550458
lwrist 6.61939760782725
lhand -28.005645642162083 26.840866502316796
lfingers nan
lthumb -1.5682203530768395 56.73929203570918
rclavicle -7.598637219794975e-15 4.174446634826134e-15
rhumerus -30.077525037078704 -14.092922061487473 -81.25997219773936
rradius 31.128464407250252
rwrist 1.636694318794346
rhand -17.256088051268616 nan
rfingers nan
rthumb 9.169839722228662 -5.994689922931173
101
root -0.12498535535947958 17.69642741769028 51.59194093344498 -2.086981281879413 0.054755576278285645 0.8877891921661103
lfemur 5.551802576156248 -5.868569582055105 -20.264092844095096
ltibia 2.3891367633036147
lfoot -15.986007220989702 0.5451518994991214
ltoes -10.290861289792039
rfemur -29.619422712712655 5.944244739643924 17.39289411932207
rtibia 11.010007585017604
rfoot -5.094477367126027 -23.631467358266626
rtoes 4.246700834110241
lowerback nan -1.8574699262095922 -4.478285273377706
upperback 0.8132073062217786 -1.7572566139669634 1.653828982565261
thorax -4.232421442688838 -0.8415053990315104 4.754540414781753
lowerneck -16.49223502261168 -2.6453543877988133 -2.9322480945763347
upperneck 19.79202891409212 -3.3358259913716037 1.7554064773881888
head 8.929958866693815 -1.7184588902666218 0.5629581864361526
lclavicle 9.920748952237077e-15 -1.3191372243205261e-14
lhumerus -20.91058273970914 -3.2391999608782767 82.13499911908055
lradius 31.649769830954206
lwrist 7.809791569097014
lhand -29.044051023015122 21.654217096835346
lfingers nan
lthumb -2.573954493700425 51.58111543332892
rclavicle 9.781509281712585e-15 -1.1891999693880528e-14
rhumerus -30.069833397550333 -15.450541947320152 -80.62139479019866
rradius 30.67914050719651
rwrist 3.0322507715746236
rhand -15.724559389681815 nan
rfingers nan
rthumb 10.633752195265297 -7.588197002823295
102
root -0.14464031731537513 17.650844777346535 51.57024592450036 -1.7478479146460417 0.7707614573658446 1.379279917632537
lfemur 8.979736109382323 -6.252621637740558 -20.804620670800617
ltibia -1.7439465182601879
lfoot -14.70547894371908 -0.6963168121937401
ltoes -18.229092365587253
rfemur -27.13312938427371 11.1257065152456 13.769737156470168
rtibia -0.92671747919821
rfoot -8.076759636995794 -25.96228299574048
rtoes 3.4961512912000856
lowerback nan -2.1232938906166514 -5.3135133044163245
upperback 0.5234668329113039 -2.2080250448045997 1.5973428086575363
thorax -4.40008770142065 -1.0473220323135364 5.319930707730728
lowerneck -16.587759862391707 -2.806383134951255 -3.118926252194105
upperneck 19.86545736227241 -3.603445716786675 1.861084208690905
head 8.966876469895297 -1.8207400925472803 0.5719874805759545
lclavicle -2.2143957451199043e-15 2.597290118836076e-14
lhumerus -20.514507132300572 -3.5747394069054526 81.94740339631072
lradius 33.62445313873506
lwrist 8.469072429712387
lhand -31.26745508581513 24.69263950979506
lfingers nan
lthumb -4.737144641086628 54.52651640387675
rclavicle -2.4319636411152883e-15 2.711916280481051e-14
rhumerus -30.2840706660321 -17.960906295569853 -79.53694411057108
rradius 29.20362865860253
rwrist 5.539827807035136
rhand -16.361695560990565 nan
rfingers nan
rthumb 9.981442707690388 -7.441203805828498
103
root -0.20006797272986793 17.610366854338267 51.22193386231138 -2.0777042181239502 1.363331136371225 1.1292783248318092
lfemur 9.992805486680798 -7.138305575218922 -20.180810888719943
ltibia 0.1575122859998075
lfoot -14.896201046526688 -2.430167025519106
ltoes -17.87058478008951
rfemur -24.304295493989343 12.000168069907152 13.455091466059146
rtibia -5.851296113422109
rfoot -9.427555606632371 -23.45029102131425
rtoes 0.7453782018412172
lowerback nan -2.346916254977048 -4.725028995631898
upperback 0.7036613740374139 -2.4024503887614035 1.9793726770610733
thorax -4.2570559071144345 -1.1985838472174217 5.260028402831005
lowerneck -17.45169518097442 -3.1868507520102014 -3.7946587383291037
upperneck 20.19885052852893 -4.1970882632940905 2.22918663159667
head 9.233821923955496 -2.0185005257067807 0.6996323783335348
lclavicle 1.8001451268015972e-14 2.474805899644959e-15
lhumerus -19.526269960640818 -3.61204204364296 81.92960302154997
lradius 34.57656181463598
lwrist 8.886662521879352
lhand -31.732990644383598 23.506813974446846
lfingers nan
lthumb -5.147189547773842 53.38726204663099
rclavicle 1.824341112656418e-14 4.326522865592003e-15
rhumerus -30.654817095967264 -18.885931986118937 -79.11452554658376
rradius 28.682937195798207
rwrist 4.614312380125053
rhand -17.303171520860307 nan
rfingers nan
rthumb 9.068318368395055 -4.56375049538388
104
root -0.2648270537664568 17.54490079513379 51.364577403192285 -2.4672210002298933 0.8673263644708551 0.859060644680488
lfemur 9.76049652442098 -8.297060396905808 -20.06943502982362
ltibia 3.7652915621347383
lfoot -14.426677009040624 -2.0499418886497733
ltoes -24.86557624878932
rfemur -24.47206238843828 7.074048187639888 16.493674001838244
rtibia 0.9059053613536108
rfoot -7.283486508905877 -14.441876875969207
rtoes 0.1924608346821861
lowerback nan -2.159610381793512 -4.429576005529702
upperback 0.6538257374431283 -2.087901256133526 2.205887786572838
thorax -4.338092221881858 -1.0516745294579597 5.167755063165561
lowerneck -16.15821559642013 -2.827334616400029 -2.7710332908049224
upperneck 19.79888926351336 -3.663268360328057 1.6809898557835352
head 8.895158490129768 -1.8270368350814576 0.47259979667664986
lclavicle 5.691556974202398e-16 -2.235601124941571e-16
lhumerus -20.011886811724672 -3.656740103086298 82.11452659286128
lradius 35.816896989557904
lwrist 8.994971080383419
lhand -31.640590023759632 23.193905834900313
lfingers nan
lthumb -5.024614810318366 53.07596966193535
rclavicle 8.406423421921058e-16 1.6390376389390297e-15
rhumerus -31.740951281534862 -19.80286794089891 -78.28003125026103
rradius 28.143770929705276
rwrist 4.923677835772153
rhand -17.208099025217457 nan
rfingers nan
rthumb 9.147777299739916 -3.701181379648975
105
root -0.32257841633185363 17.570696811508643 51.38019430525958 -2.6728498496574575 0.9577594207642046 0.4430730279932642
lfemur 9.471674602044935 -9.573683132736656 -19.494746599859617
ltibia 7.951476999577551
lfoot -11.259845734459285 -3.350763914920262
ltoes -24.287804703644227
rfemur -24.705844347001197 7.185445515049 17.47589496820833
rtibia 7.152749695174482
rfoot -3.3451721830626235 -12.475316351581581
rtoes -2.6065421587834066
lowerback nan -2.2512885924414388 -3.6278822966753275
upperback 0.4197814734636995 -2.035530816096997 2.4687189435434624
thorax -4.676427294157702 -1.0616962455219454 4.793679468717892
lowerneck -16.345495035444618 -2.8138955448997462 -2.824872475344343
upperneck 20.093244574380837 -3.566546208000751 1.433927755495891
head 9.027909898306824 -1.8141273378814862 0.3918122681705827
lclavicle 1.2764092640868873e-14 2.2240052532515248e-14
lhumerus -20.526790369552934 -3.3616602603550074 82.5428809459517
lradius 35.605465735437846
lwrist 9.011329063064425
lhand -30.179318733874183 23.585538085172576
lfingers nan
lthumb -3.5027724092955586 53.63703721028521
rclavicle 1.2987857416330554e-14 2.4291184318697103e-14
rhumerus -32.56741865767677 -20.488859604467187 -77.57754067732408
rradius 27.513062732870385
rwrist 5.2737827756240065
rhand -17.65326712536667 nan
rfingers nan
rthumb 8.702098667096955 -2.8834627406871007
